G04*
G04 #@! TF.GenerationSoftware,Altium Limited,Altium Designer,20.2.4 (192)*
G04*
G04 Layer_Physical_Order=1*
G04 Layer_Color=255*
%FSLAX25Y25*%
%MOIN*%
G70*
G04*
G04 #@! TF.SameCoordinates,D8DA0DD5-309E-41AB-983F-212F3CA71AE9*
G04*
G04*
G04 #@! TF.FilePolarity,Positive*
G04*
G01*
G75*
%ADD10R,0.20000X0.05787*%
%ADD11C,0.05906*%
%ADD12C,0.01000*%
%ADD13C,0.11811*%
G04:AMPARAMS|DCode=14|XSize=118.11mil|YSize=118.11mil|CornerRadius=14.76mil|HoleSize=0mil|Usage=FLASHONLY|Rotation=180.000|XOffset=0mil|YOffset=0mil|HoleType=Round|Shape=RoundedRectangle|*
%AMROUNDEDRECTD14*
21,1,0.11811,0.08858,0,0,180.0*
21,1,0.08858,0.11811,0,0,180.0*
1,1,0.02953,-0.04429,0.04429*
1,1,0.02953,0.04429,0.04429*
1,1,0.02953,0.04429,-0.04429*
1,1,0.02953,-0.04429,-0.04429*
%
%ADD14ROUNDEDRECTD14*%
%ADD15C,0.10000*%
%ADD16O,0.07874X0.06299*%
%ADD17R,0.07874X0.06299*%
%ADD18R,0.20000X0.09508*%
%ADD19O,0.11811X0.10236*%
%ADD20O,0.10236X0.11811*%
G36*
X393701Y200992D02*
X393468Y200589D01*
X393201Y200589D01*
X383075D01*
Y193866D01*
X381500D01*
Y192291D01*
X369531D01*
Y187964D01*
X358436D01*
X357390Y188822D01*
X356180Y189469D01*
X354866Y189868D01*
X353500Y190002D01*
X352134Y189868D01*
X350820Y189469D01*
X349610Y188822D01*
X348549Y187951D01*
X347678Y186890D01*
X347031Y185680D01*
X346632Y184366D01*
X346498Y183000D01*
X346632Y181634D01*
X347031Y180320D01*
X347678Y179110D01*
X348549Y178049D01*
X349610Y177178D01*
X350820Y176531D01*
X352134Y176132D01*
X353500Y175998D01*
X354866Y176132D01*
X356180Y176531D01*
X357390Y177178D01*
X358436Y178036D01*
X369531D01*
Y173709D01*
X381500D01*
Y172134D01*
X383075D01*
Y165411D01*
X393201D01*
X393468Y165411D01*
X393701Y165008D01*
Y87589D01*
X386075D01*
Y80866D01*
X384500D01*
Y79291D01*
X372532D01*
Y74964D01*
X351436D01*
X350390Y75822D01*
X349180Y76469D01*
X347866Y76868D01*
X346500Y77002D01*
X345134Y76868D01*
X343820Y76469D01*
X342610Y75822D01*
X341549Y74951D01*
X340678Y73890D01*
X340031Y72680D01*
X339632Y71366D01*
X339498Y70000D01*
X339632Y68634D01*
X340031Y67320D01*
X340678Y66110D01*
X341549Y65049D01*
X342610Y64178D01*
X343820Y63531D01*
X345134Y63132D01*
X346500Y62998D01*
X347866Y63132D01*
X349180Y63531D01*
X350390Y64178D01*
X351436Y65036D01*
X372532D01*
Y60709D01*
X384500D01*
Y59134D01*
X386075D01*
Y52411D01*
X393701D01*
Y0D01*
X0D01*
Y275590D01*
X393701D01*
Y200992D01*
D02*
G37*
%LPC*%
G36*
X305787Y272243D02*
X304213D01*
X302823Y272106D01*
X301488Y271701D01*
X300256Y271043D01*
X299177Y270157D01*
X298292Y269078D01*
X297634Y267847D01*
X297229Y266511D01*
X297092Y265122D01*
X297229Y263733D01*
X297634Y262397D01*
X298292Y261166D01*
X299177Y260087D01*
X300256Y259201D01*
X301488Y258543D01*
X302823Y258138D01*
X304213Y258001D01*
X305787D01*
X307177Y258138D01*
X308512Y258543D01*
X309744Y259201D01*
X310823Y260087D01*
X311708Y261166D01*
X312366Y262397D01*
X312772Y263733D01*
X312908Y265122D01*
X312772Y266511D01*
X312366Y267847D01*
X311708Y269078D01*
X310823Y270157D01*
X309744Y271043D01*
X308512Y271701D01*
X307177Y272106D01*
X305787Y272243D01*
D02*
G37*
G36*
X325079Y261026D02*
Y254886D01*
X330547D01*
X330488Y255488D01*
X330083Y256823D01*
X329425Y258055D01*
X328539Y259134D01*
X327460Y260019D01*
X326229Y260677D01*
X325079Y261026D01*
D02*
G37*
G36*
X321929Y261026D02*
X320779Y260677D01*
X319548Y260019D01*
X318469Y259134D01*
X317583Y258055D01*
X316925Y256823D01*
X316520Y255488D01*
X316461Y254886D01*
X321929D01*
Y261026D01*
D02*
G37*
G36*
Y251736D02*
X316461D01*
X316520Y251134D01*
X316925Y249799D01*
X317583Y248568D01*
X318469Y247488D01*
X319548Y246603D01*
X320779Y245945D01*
X321929Y245596D01*
Y251736D01*
D02*
G37*
G36*
X330547D02*
X325079D01*
Y245596D01*
X326229Y245945D01*
X327460Y246603D01*
X328539Y247488D01*
X329425Y248568D01*
X330083Y249799D01*
X330488Y251134D01*
X330547Y251736D01*
D02*
G37*
G36*
X306575Y248543D02*
Y243075D01*
X312715D01*
X312366Y244225D01*
X311708Y245456D01*
X310823Y246535D01*
X309744Y247421D01*
X308512Y248079D01*
X307177Y248484D01*
X306575Y248543D01*
D02*
G37*
G36*
X303425D02*
X302823Y248484D01*
X301488Y248079D01*
X300256Y247421D01*
X299177Y246535D01*
X298292Y245456D01*
X297634Y244225D01*
X297285Y243075D01*
X303425D01*
Y248543D01*
D02*
G37*
G36*
X312715Y239925D02*
X306575D01*
Y234457D01*
X307177Y234516D01*
X308512Y234921D01*
X309744Y235579D01*
X310823Y236465D01*
X311708Y237544D01*
X312366Y238775D01*
X312715Y239925D01*
D02*
G37*
G36*
X303425D02*
X297285D01*
X297634Y238775D01*
X298292Y237544D01*
X299177Y236465D01*
X300256Y235579D01*
X301488Y234921D01*
X302823Y234516D01*
X303425Y234457D01*
Y239925D01*
D02*
G37*
G36*
X202906Y227618D02*
X191095D01*
Y217382D01*
X193382D01*
X193516Y216882D01*
X192562Y216150D01*
X191742Y215081D01*
X191325Y214075D01*
X197000D01*
X202675D01*
X202258Y215081D01*
X201438Y216150D01*
X200484Y216882D01*
X200619Y217382D01*
X202906D01*
Y227618D01*
D02*
G37*
G36*
X379925Y200589D02*
X369531D01*
Y195441D01*
X379925D01*
Y200589D01*
D02*
G37*
G36*
X147406Y227618D02*
X135594D01*
Y217382D01*
X137882D01*
X138016Y216882D01*
X137062Y216150D01*
X136242Y215081D01*
X135726Y213836D01*
X135550Y212500D01*
X135726Y211164D01*
X136242Y209919D01*
X137062Y208850D01*
X138131Y208029D01*
X138756Y207771D01*
Y207229D01*
X138131Y206971D01*
X137062Y206150D01*
X136242Y205081D01*
X135726Y203836D01*
X135550Y202500D01*
X135726Y201164D01*
X136242Y199919D01*
X137062Y198850D01*
X138131Y198029D01*
X138756Y197771D01*
Y197229D01*
X138131Y196971D01*
X137062Y196150D01*
X136242Y195081D01*
X135825Y194075D01*
X141500D01*
X147175D01*
X146758Y195081D01*
X145938Y196150D01*
X144869Y196971D01*
X144244Y197229D01*
Y197771D01*
X144869Y198029D01*
X145938Y198850D01*
X146758Y199919D01*
X147274Y201164D01*
X147450Y202500D01*
X147274Y203836D01*
X146758Y205081D01*
X145938Y206150D01*
X144869Y206971D01*
X144244Y207229D01*
Y207771D01*
X144869Y208029D01*
X145938Y208850D01*
X146758Y209919D01*
X147274Y211164D01*
X147450Y212500D01*
X147274Y213836D01*
X146758Y215081D01*
X145938Y216150D01*
X144984Y216882D01*
X145118Y217382D01*
X147406D01*
Y227618D01*
D02*
G37*
G36*
X60462Y200967D02*
X33531D01*
Y189032D01*
X60462D01*
Y200967D01*
D02*
G37*
G36*
X276000Y187301D02*
X275016Y187171D01*
X274099Y186792D01*
X273312Y186188D01*
X272708Y185400D01*
X272328Y184484D01*
X272199Y183500D01*
X272328Y182516D01*
X272708Y181599D01*
X273312Y180812D01*
X274099Y180208D01*
X275016Y179829D01*
X276000Y179699D01*
X276984Y179829D01*
X277901Y180208D01*
X278688Y180812D01*
X279292Y181599D01*
X279672Y182516D01*
X279801Y183500D01*
X279672Y184484D01*
X279292Y185400D01*
X278688Y186188D01*
X277901Y186792D01*
X276984Y187171D01*
X276000Y187301D01*
D02*
G37*
G36*
X313500Y186801D02*
X312516Y186671D01*
X311599Y186292D01*
X310812Y185688D01*
X310208Y184900D01*
X309828Y183984D01*
X309699Y183000D01*
X309828Y182016D01*
X310208Y181099D01*
X310812Y180312D01*
X311599Y179708D01*
X312516Y179329D01*
X313500Y179199D01*
X314484Y179329D01*
X315401Y179708D01*
X316188Y180312D01*
X316792Y181099D01*
X317172Y182016D01*
X317301Y183000D01*
X317172Y183984D01*
X316792Y184900D01*
X316188Y185688D01*
X315401Y186292D01*
X314484Y186671D01*
X313500Y186801D01*
D02*
G37*
G36*
X379925Y170559D02*
X369531D01*
Y165411D01*
X379925D01*
Y170559D01*
D02*
G37*
G36*
X52429Y175904D02*
X43571D01*
X42672Y175785D01*
X41834Y175438D01*
X41114Y174886D01*
X40562Y174166D01*
X40215Y173328D01*
X40096Y172429D01*
Y163571D01*
X40215Y162672D01*
X40562Y161834D01*
X41114Y161114D01*
X41834Y160562D01*
X42672Y160215D01*
X43571Y160096D01*
X52429D01*
X53328Y160215D01*
X54166Y160562D01*
X54886Y161114D01*
X55438Y161834D01*
X55785Y162672D01*
X55904Y163571D01*
Y172429D01*
X55785Y173328D01*
X55438Y174166D01*
X54886Y174886D01*
X54166Y175438D01*
X53328Y175785D01*
X52429Y175904D01*
D02*
G37*
G36*
X277575Y146927D02*
Y145075D01*
X279427D01*
X279292Y145401D01*
X278688Y146188D01*
X277901Y146792D01*
X277575Y146927D01*
D02*
G37*
G36*
X274425D02*
X274099Y146792D01*
X273312Y146188D01*
X272708Y145401D01*
X272573Y145075D01*
X274425D01*
Y146927D01*
D02*
G37*
G36*
X48000Y155912D02*
X46456Y155760D01*
X44972Y155310D01*
X43604Y154579D01*
X42405Y153595D01*
X41421Y152396D01*
X40690Y151028D01*
X40240Y149544D01*
X40088Y148000D01*
X40240Y146456D01*
X40690Y144972D01*
X41421Y143604D01*
X42405Y142405D01*
X43604Y141421D01*
X44972Y140690D01*
X46456Y140240D01*
X48000Y140088D01*
X49544Y140240D01*
X51028Y140690D01*
X52396Y141421D01*
X53595Y142405D01*
X54579Y143604D01*
X55310Y144972D01*
X55760Y146456D01*
X55912Y148000D01*
X55760Y149544D01*
X55310Y151028D01*
X54579Y152396D01*
X53595Y153595D01*
X52396Y154579D01*
X51028Y155310D01*
X49544Y155760D01*
X48000Y155912D01*
D02*
G37*
G36*
X279427Y141925D02*
X277575D01*
Y140073D01*
X277901Y140208D01*
X278688Y140812D01*
X279292Y141600D01*
X279427Y141925D01*
D02*
G37*
G36*
X274425D02*
X272573D01*
X272708Y141600D01*
X273312Y140812D01*
X274099Y140208D01*
X274425Y140073D01*
Y141925D01*
D02*
G37*
G36*
X48000Y135912D02*
X46456Y135760D01*
X44972Y135310D01*
X43604Y134579D01*
X42405Y133595D01*
X41421Y132396D01*
X40690Y131028D01*
X40240Y129544D01*
X40088Y128000D01*
X40240Y126456D01*
X40690Y124972D01*
X41421Y123604D01*
X42405Y122405D01*
X43604Y121421D01*
X44972Y120690D01*
X46456Y120240D01*
X48000Y120088D01*
X49544Y120240D01*
X51028Y120690D01*
X52396Y121421D01*
X53595Y122405D01*
X54579Y123604D01*
X55310Y124972D01*
X55760Y126456D01*
X55912Y128000D01*
X55760Y129544D01*
X55310Y131028D01*
X54579Y132396D01*
X53595Y133595D01*
X52396Y134579D01*
X51028Y135310D01*
X49544Y135760D01*
X48000Y135912D01*
D02*
G37*
G36*
X101500Y112301D02*
X100516Y112171D01*
X99599Y111792D01*
X98812Y111188D01*
X98208Y110400D01*
X97829Y109484D01*
X97699Y108500D01*
X97829Y107516D01*
X98208Y106599D01*
X98812Y105812D01*
X99599Y105208D01*
X100516Y104829D01*
X101500Y104699D01*
X102484Y104829D01*
X103401Y105208D01*
X104188Y105812D01*
X104792Y106599D01*
X105172Y107516D01*
X105301Y108500D01*
X105172Y109484D01*
X104792Y110400D01*
X104188Y111188D01*
X103401Y111792D01*
X102484Y112171D01*
X101500Y112301D01*
D02*
G37*
G36*
X48000Y115912D02*
X46456Y115760D01*
X44972Y115310D01*
X43604Y114579D01*
X42405Y113595D01*
X41421Y112396D01*
X40690Y111028D01*
X40240Y109544D01*
X40088Y108000D01*
X40240Y106456D01*
X40690Y104972D01*
X41421Y103604D01*
X42405Y102405D01*
X43604Y101421D01*
X44972Y100690D01*
X46456Y100240D01*
X48000Y100088D01*
X49544Y100240D01*
X51028Y100690D01*
X52396Y101421D01*
X53595Y102405D01*
X54579Y103604D01*
X55310Y104972D01*
X55760Y106456D01*
X55912Y108000D01*
X55760Y109544D01*
X55310Y111028D01*
X54579Y112396D01*
X53595Y113595D01*
X52396Y114579D01*
X51028Y115310D01*
X49544Y115760D01*
X48000Y115912D01*
D02*
G37*
G36*
X382925Y87589D02*
X372532D01*
Y82441D01*
X382925D01*
Y87589D01*
D02*
G37*
G36*
X48000Y95912D02*
X46456Y95760D01*
X44972Y95310D01*
X43604Y94579D01*
X42405Y93595D01*
X41421Y92396D01*
X40690Y91028D01*
X40240Y89544D01*
X40088Y88000D01*
X40240Y86456D01*
X40690Y84972D01*
X41421Y83604D01*
X42405Y82405D01*
X43604Y81421D01*
X44972Y80690D01*
X46456Y80240D01*
X48000Y80088D01*
X49544Y80240D01*
X51028Y80690D01*
X52396Y81421D01*
X53595Y82405D01*
X54579Y83604D01*
X55310Y84972D01*
X55760Y86456D01*
X55912Y88000D01*
X55760Y89544D01*
X55310Y91028D01*
X54579Y92396D01*
X53595Y93595D01*
X52396Y94579D01*
X51028Y95310D01*
X49544Y95760D01*
X48000Y95912D01*
D02*
G37*
G36*
X202675Y210925D02*
X197000D01*
X191325D01*
X191742Y209919D01*
X192562Y208850D01*
X193631Y208029D01*
X194256Y207771D01*
Y207229D01*
X193631Y206971D01*
X192562Y206150D01*
X191742Y205081D01*
X191226Y203836D01*
X191050Y202500D01*
X191226Y201164D01*
X191742Y199919D01*
X192562Y198850D01*
X193631Y198029D01*
X194256Y197771D01*
Y197229D01*
X193631Y196971D01*
X192562Y196150D01*
X191742Y195081D01*
X191226Y193836D01*
X191050Y192500D01*
X191226Y191164D01*
X191742Y189919D01*
X192562Y188850D01*
X193631Y188029D01*
X194256Y187771D01*
Y187229D01*
X193631Y186971D01*
X192562Y186150D01*
X191742Y185081D01*
X191226Y183836D01*
X191050Y182500D01*
X191226Y181164D01*
X191742Y179919D01*
X192562Y178850D01*
X193631Y178029D01*
X194256Y177771D01*
Y177229D01*
X193631Y176971D01*
X192562Y176150D01*
X191742Y175081D01*
X191226Y173836D01*
X191050Y172500D01*
X191226Y171164D01*
X191742Y169919D01*
X192562Y168850D01*
X193631Y168029D01*
X194256Y167771D01*
Y167229D01*
X193631Y166971D01*
X192562Y166150D01*
X191742Y165081D01*
X191226Y163836D01*
X191050Y162500D01*
X191226Y161164D01*
X191742Y159919D01*
X192562Y158850D01*
X193631Y158029D01*
X194256Y157771D01*
Y157229D01*
X193631Y156971D01*
X192562Y156150D01*
X191742Y155081D01*
X191226Y153836D01*
X191050Y152500D01*
X191226Y151164D01*
X191742Y149919D01*
X192562Y148850D01*
X193631Y148029D01*
X194256Y147771D01*
Y147229D01*
X193631Y146971D01*
X192562Y146150D01*
X191742Y145081D01*
X191226Y143836D01*
X191050Y142500D01*
X191226Y141164D01*
X191742Y139919D01*
X192562Y138850D01*
X193631Y138029D01*
X194256Y137771D01*
Y137229D01*
X193631Y136971D01*
X192562Y136150D01*
X191742Y135081D01*
X191226Y133836D01*
X191050Y132500D01*
X191226Y131164D01*
X191742Y129919D01*
X192562Y128850D01*
X193631Y128029D01*
X194256Y127771D01*
Y127229D01*
X193631Y126971D01*
X192562Y126150D01*
X191742Y125081D01*
X191226Y123836D01*
X191050Y122500D01*
X191226Y121164D01*
X191742Y119919D01*
X192562Y118850D01*
X193631Y118029D01*
X194256Y117771D01*
Y117229D01*
X193631Y116971D01*
X192562Y116150D01*
X191742Y115081D01*
X191226Y113836D01*
X191050Y112500D01*
X191226Y111164D01*
X191742Y109919D01*
X192562Y108850D01*
X193631Y108029D01*
X194256Y107771D01*
Y107229D01*
X193631Y106971D01*
X192562Y106150D01*
X191742Y105081D01*
X191226Y103836D01*
X191050Y102500D01*
X191226Y101164D01*
X191742Y99919D01*
X192562Y98850D01*
X193631Y98029D01*
X194256Y97771D01*
Y97229D01*
X193631Y96971D01*
X192562Y96150D01*
X191742Y95081D01*
X191226Y93836D01*
X191050Y92500D01*
X191226Y91164D01*
X191742Y89919D01*
X192562Y88850D01*
X193631Y88029D01*
X194256Y87771D01*
Y87229D01*
X193631Y86971D01*
X192562Y86150D01*
X191742Y85081D01*
X191226Y83836D01*
X191050Y82500D01*
X191226Y81164D01*
X191742Y79919D01*
X192562Y78850D01*
X193631Y78029D01*
X194877Y77514D01*
X196213Y77338D01*
X197787D01*
X199124Y77514D01*
X200368Y78029D01*
X201438Y78850D01*
X202258Y79919D01*
X202774Y81164D01*
X202950Y82500D01*
X202774Y83836D01*
X202258Y85081D01*
X201438Y86150D01*
X200368Y86971D01*
X199744Y87229D01*
Y87771D01*
X200368Y88029D01*
X201438Y88850D01*
X202258Y89919D01*
X202774Y91164D01*
X202950Y92500D01*
X202774Y93836D01*
X202258Y95081D01*
X201438Y96150D01*
X200368Y96971D01*
X199744Y97229D01*
Y97771D01*
X200368Y98029D01*
X201438Y98850D01*
X202258Y99919D01*
X202774Y101164D01*
X202950Y102500D01*
X202774Y103836D01*
X202258Y105081D01*
X201438Y106150D01*
X200368Y106971D01*
X199744Y107229D01*
Y107771D01*
X200368Y108029D01*
X201438Y108850D01*
X202258Y109919D01*
X202774Y111164D01*
X202950Y112500D01*
X202774Y113836D01*
X202258Y115081D01*
X201438Y116150D01*
X200368Y116971D01*
X199744Y117229D01*
Y117771D01*
X200368Y118029D01*
X201438Y118850D01*
X202258Y119919D01*
X202774Y121164D01*
X202950Y122500D01*
X202774Y123836D01*
X202258Y125081D01*
X201438Y126150D01*
X200368Y126971D01*
X199744Y127229D01*
Y127771D01*
X200368Y128029D01*
X201438Y128850D01*
X202258Y129919D01*
X202774Y131164D01*
X202950Y132500D01*
X202774Y133836D01*
X202258Y135081D01*
X201438Y136150D01*
X200368Y136971D01*
X199744Y137229D01*
Y137771D01*
X200368Y138029D01*
X201438Y138850D01*
X202258Y139919D01*
X202774Y141164D01*
X202950Y142500D01*
X202774Y143836D01*
X202258Y145081D01*
X201438Y146150D01*
X200368Y146971D01*
X199744Y147229D01*
Y147771D01*
X200368Y148029D01*
X201438Y148850D01*
X202258Y149919D01*
X202774Y151164D01*
X202950Y152500D01*
X202774Y153836D01*
X202258Y155081D01*
X201438Y156150D01*
X200368Y156971D01*
X199744Y157229D01*
Y157771D01*
X200368Y158029D01*
X201438Y158850D01*
X202258Y159919D01*
X202774Y161164D01*
X202950Y162500D01*
X202774Y163836D01*
X202258Y165081D01*
X201438Y166150D01*
X200368Y166971D01*
X199744Y167229D01*
Y167771D01*
X200368Y168029D01*
X201438Y168850D01*
X202258Y169919D01*
X202774Y171164D01*
X202950Y172500D01*
X202774Y173836D01*
X202258Y175081D01*
X201438Y176150D01*
X200368Y176971D01*
X199744Y177229D01*
Y177771D01*
X200368Y178029D01*
X201438Y178850D01*
X202258Y179919D01*
X202774Y181164D01*
X202950Y182500D01*
X202774Y183836D01*
X202258Y185081D01*
X201438Y186150D01*
X200368Y186971D01*
X199744Y187229D01*
Y187771D01*
X200368Y188029D01*
X201438Y188850D01*
X202258Y189919D01*
X202774Y191164D01*
X202950Y192500D01*
X202774Y193836D01*
X202258Y195081D01*
X201438Y196150D01*
X200368Y196971D01*
X199744Y197229D01*
Y197771D01*
X200368Y198029D01*
X201438Y198850D01*
X202258Y199919D01*
X202774Y201164D01*
X202950Y202500D01*
X202774Y203836D01*
X202258Y205081D01*
X201438Y206150D01*
X200368Y206971D01*
X199744Y207229D01*
Y207771D01*
X200368Y208029D01*
X201438Y208850D01*
X202258Y209919D01*
X202675Y210925D01*
D02*
G37*
G36*
X147175Y190925D02*
X141500D01*
X135825D01*
X136242Y189919D01*
X137062Y188850D01*
X138131Y188029D01*
X138756Y187771D01*
Y187229D01*
X138131Y186971D01*
X137062Y186150D01*
X136242Y185081D01*
X135726Y183836D01*
X135550Y182500D01*
X135726Y181164D01*
X136242Y179919D01*
X137062Y178850D01*
X138131Y178029D01*
X138756Y177771D01*
Y177229D01*
X138131Y176971D01*
X137062Y176150D01*
X136242Y175081D01*
X135726Y173836D01*
X135550Y172500D01*
X135726Y171164D01*
X136242Y169919D01*
X137062Y168850D01*
X138131Y168029D01*
X138756Y167771D01*
Y167229D01*
X138131Y166971D01*
X137062Y166150D01*
X136242Y165081D01*
X135726Y163836D01*
X135550Y162500D01*
X135726Y161164D01*
X136242Y159919D01*
X137062Y158850D01*
X138131Y158029D01*
X138756Y157771D01*
Y157229D01*
X138131Y156971D01*
X137062Y156150D01*
X136242Y155081D01*
X135726Y153836D01*
X135550Y152500D01*
X135726Y151164D01*
X136242Y149919D01*
X137062Y148850D01*
X138131Y148029D01*
X138756Y147771D01*
Y147229D01*
X138131Y146971D01*
X137062Y146150D01*
X136242Y145081D01*
X135726Y143836D01*
X135550Y142500D01*
X135726Y141164D01*
X136242Y139919D01*
X137062Y138850D01*
X138131Y138029D01*
X138756Y137771D01*
Y137229D01*
X138131Y136971D01*
X137062Y136150D01*
X136242Y135081D01*
X135726Y133836D01*
X135550Y132500D01*
X135726Y131164D01*
X136242Y129919D01*
X137062Y128850D01*
X138131Y128029D01*
X138756Y127771D01*
Y127229D01*
X138131Y126971D01*
X137062Y126150D01*
X136242Y125081D01*
X135726Y123836D01*
X135550Y122500D01*
X135726Y121164D01*
X136242Y119919D01*
X137062Y118850D01*
X138131Y118029D01*
X138756Y117771D01*
Y117229D01*
X138131Y116971D01*
X137062Y116150D01*
X136242Y115081D01*
X135726Y113836D01*
X135550Y112500D01*
X135726Y111164D01*
X136242Y109919D01*
X137062Y108850D01*
X138131Y108029D01*
X138756Y107771D01*
Y107229D01*
X138131Y106971D01*
X137062Y106150D01*
X136242Y105081D01*
X135726Y103836D01*
X135550Y102500D01*
X135726Y101164D01*
X136242Y99919D01*
X137062Y98850D01*
X138131Y98029D01*
X138756Y97771D01*
Y97229D01*
X138131Y96971D01*
X137062Y96150D01*
X136242Y95081D01*
X135726Y93836D01*
X135550Y92500D01*
X135726Y91164D01*
X136242Y89919D01*
X137062Y88850D01*
X138131Y88029D01*
X138756Y87771D01*
Y87229D01*
X138131Y86971D01*
X137062Y86150D01*
X136242Y85081D01*
X135726Y83836D01*
X135550Y82500D01*
X135726Y81164D01*
X136242Y79919D01*
X137062Y78850D01*
X138131Y78029D01*
X139376Y77514D01*
X140713Y77338D01*
X142287D01*
X143623Y77514D01*
X144869Y78029D01*
X145938Y78850D01*
X146758Y79919D01*
X147274Y81164D01*
X147450Y82500D01*
X147274Y83836D01*
X146758Y85081D01*
X145938Y86150D01*
X144869Y86971D01*
X144244Y87229D01*
Y87771D01*
X144869Y88029D01*
X145938Y88850D01*
X146758Y89919D01*
X147274Y91164D01*
X147450Y92500D01*
X147274Y93836D01*
X146758Y95081D01*
X145938Y96150D01*
X144869Y96971D01*
X144244Y97229D01*
Y97771D01*
X144869Y98029D01*
X145938Y98850D01*
X146758Y99919D01*
X147274Y101164D01*
X147450Y102500D01*
X147274Y103836D01*
X146758Y105081D01*
X145938Y106150D01*
X144869Y106971D01*
X144244Y107229D01*
Y107771D01*
X144869Y108029D01*
X145938Y108850D01*
X146758Y109919D01*
X147274Y111164D01*
X147450Y112500D01*
X147274Y113836D01*
X146758Y115081D01*
X145938Y116150D01*
X144869Y116971D01*
X144244Y117229D01*
Y117771D01*
X144869Y118029D01*
X145938Y118850D01*
X146758Y119919D01*
X147274Y121164D01*
X147450Y122500D01*
X147274Y123836D01*
X146758Y125081D01*
X145938Y126150D01*
X144869Y126971D01*
X144244Y127229D01*
Y127771D01*
X144869Y128029D01*
X145938Y128850D01*
X146758Y129919D01*
X147274Y131164D01*
X147450Y132500D01*
X147274Y133836D01*
X146758Y135081D01*
X145938Y136150D01*
X144869Y136971D01*
X144244Y137229D01*
Y137771D01*
X144869Y138029D01*
X145938Y138850D01*
X146758Y139919D01*
X147274Y141164D01*
X147450Y142500D01*
X147274Y143836D01*
X146758Y145081D01*
X145938Y146150D01*
X144869Y146971D01*
X144244Y147229D01*
Y147771D01*
X144869Y148029D01*
X145938Y148850D01*
X146758Y149919D01*
X147274Y151164D01*
X147450Y152500D01*
X147274Y153836D01*
X146758Y155081D01*
X145938Y156150D01*
X144869Y156971D01*
X144244Y157229D01*
Y157771D01*
X144869Y158029D01*
X145938Y158850D01*
X146758Y159919D01*
X147274Y161164D01*
X147450Y162500D01*
X147274Y163836D01*
X146758Y165081D01*
X145938Y166150D01*
X144869Y166971D01*
X144244Y167229D01*
Y167771D01*
X144869Y168029D01*
X145938Y168850D01*
X146758Y169919D01*
X147274Y171164D01*
X147450Y172500D01*
X147274Y173836D01*
X146758Y175081D01*
X145938Y176150D01*
X144869Y176971D01*
X144244Y177229D01*
Y177771D01*
X144869Y178029D01*
X145938Y178850D01*
X146758Y179919D01*
X147274Y181164D01*
X147450Y182500D01*
X147274Y183836D01*
X146758Y185081D01*
X145938Y186150D01*
X144869Y186971D01*
X144244Y187229D01*
Y187771D01*
X144869Y188029D01*
X145938Y188850D01*
X146758Y189919D01*
X147175Y190925D01*
D02*
G37*
G36*
X49575Y75751D02*
Y69575D01*
X55751D01*
X55310Y71028D01*
X54579Y72396D01*
X53595Y73595D01*
X52396Y74579D01*
X51028Y75310D01*
X49575Y75751D01*
D02*
G37*
G36*
X46425D02*
X44972Y75310D01*
X43604Y74579D01*
X42405Y73595D01*
X41421Y72396D01*
X40690Y71028D01*
X40249Y69575D01*
X46425D01*
Y75751D01*
D02*
G37*
G36*
X306500Y73801D02*
X305516Y73672D01*
X304599Y73292D01*
X303812Y72688D01*
X303208Y71900D01*
X302829Y70984D01*
X302699Y70000D01*
X302829Y69016D01*
X303208Y68099D01*
X303812Y67312D01*
X304599Y66708D01*
X305516Y66329D01*
X306500Y66199D01*
X307484Y66329D01*
X308401Y66708D01*
X309188Y67312D01*
X309792Y68099D01*
X310172Y69016D01*
X310301Y70000D01*
X310172Y70984D01*
X309792Y71900D01*
X309188Y72688D01*
X308401Y73292D01*
X307484Y73672D01*
X306500Y73801D01*
D02*
G37*
G36*
X276000D02*
X275016Y73672D01*
X274099Y73292D01*
X273312Y72688D01*
X272708Y71900D01*
X272328Y70984D01*
X272199Y70000D01*
X272328Y69016D01*
X272708Y68099D01*
X273312Y67312D01*
X274099Y66708D01*
X275016Y66329D01*
X276000Y66199D01*
X276984Y66329D01*
X277901Y66708D01*
X278688Y67312D01*
X279292Y68099D01*
X279672Y69016D01*
X279801Y70000D01*
X279672Y70984D01*
X279292Y71900D01*
X278688Y72688D01*
X277901Y73292D01*
X276984Y73672D01*
X276000Y73801D01*
D02*
G37*
G36*
X101500Y72301D02*
X100516Y72171D01*
X99599Y71792D01*
X98812Y71188D01*
X98208Y70401D01*
X97829Y69484D01*
X97699Y68500D01*
X97829Y67516D01*
X98208Y66600D01*
X98812Y65812D01*
X99599Y65208D01*
X100516Y64828D01*
X101500Y64699D01*
X102484Y64828D01*
X103401Y65208D01*
X104188Y65812D01*
X104792Y66600D01*
X105172Y67516D01*
X105301Y68500D01*
X105172Y69484D01*
X104792Y70401D01*
X104188Y71188D01*
X103401Y71792D01*
X102484Y72171D01*
X101500Y72301D01*
D02*
G37*
G36*
X55751Y66425D02*
X49575D01*
Y60249D01*
X51028Y60690D01*
X52396Y61421D01*
X53595Y62405D01*
X54579Y63604D01*
X55310Y64972D01*
X55751Y66425D01*
D02*
G37*
G36*
X46425D02*
X40249D01*
X40690Y64972D01*
X41421Y63604D01*
X42405Y62405D01*
X43604Y61421D01*
X44972Y60690D01*
X46425Y60249D01*
Y66425D01*
D02*
G37*
G36*
X382925Y57559D02*
X372532D01*
Y52411D01*
X382925D01*
Y57559D01*
D02*
G37*
G36*
X56463Y53967D02*
X34532D01*
Y42031D01*
X56463D01*
Y53967D01*
D02*
G37*
G36*
X277575Y33427D02*
Y31575D01*
X279427D01*
X279292Y31901D01*
X278688Y32688D01*
X277901Y33292D01*
X277575Y33427D01*
D02*
G37*
G36*
X274425D02*
X274099Y33292D01*
X273312Y32688D01*
X272708Y31901D01*
X272573Y31575D01*
X274425D01*
Y33427D01*
D02*
G37*
G36*
X279427Y28425D02*
X277575D01*
Y26573D01*
X277901Y26708D01*
X278688Y27312D01*
X279292Y28100D01*
X279427Y28425D01*
D02*
G37*
G36*
X274425D02*
X272573D01*
X272708Y28100D01*
X273312Y27312D01*
X274099Y26708D01*
X274425Y26573D01*
Y28425D01*
D02*
G37*
%LPD*%
D10*
X381500Y183000D02*
D03*
X384500Y70000D02*
D03*
D11*
X353500Y183000D02*
X381500D01*
X346500Y70000D02*
X384500D01*
X303122Y265122D02*
X305000D01*
D12*
X41499Y49998D02*
X40499Y50998D01*
X38500D01*
X37500Y49998D01*
Y46000D01*
X38500Y45000D01*
X40499D01*
X41499Y46000D01*
Y47999D01*
X39499D01*
X43498Y45000D02*
Y50998D01*
X47497Y45000D01*
Y50998D01*
X49496D02*
Y45000D01*
X52495D01*
X53495Y46000D01*
Y49998D01*
X52495Y50998D01*
X49496D01*
X36500Y196998D02*
X37500Y197998D01*
X39499D01*
X40499Y196998D01*
Y195999D01*
X39499Y194999D01*
X38499D01*
X39499D01*
X40499Y193999D01*
Y193000D01*
X39499Y192000D01*
X37500D01*
X36500Y193000D01*
X42498Y192000D02*
Y193000D01*
X43498D01*
Y192000D01*
X42498D01*
X47496Y196998D02*
X48496Y197998D01*
X50495D01*
X51495Y196998D01*
Y195999D01*
X50495Y194999D01*
X49496D01*
X50495D01*
X51495Y193999D01*
Y193000D01*
X50495Y192000D01*
X48496D01*
X47496Y193000D01*
X53495Y197998D02*
Y193999D01*
X55494Y192000D01*
X57493Y193999D01*
Y197998D01*
D13*
X48000Y68000D02*
D03*
Y88000D02*
D03*
Y148000D02*
D03*
Y128000D02*
D03*
Y108000D02*
D03*
D14*
Y168000D02*
D03*
D15*
X353500Y183000D02*
D03*
X346500Y70000D02*
D03*
D16*
X197000Y82500D02*
D03*
Y92500D02*
D03*
Y102500D02*
D03*
Y112500D02*
D03*
Y122500D02*
D03*
Y132500D02*
D03*
Y142500D02*
D03*
Y152500D02*
D03*
Y162500D02*
D03*
Y172500D02*
D03*
Y182500D02*
D03*
Y192500D02*
D03*
Y202500D02*
D03*
Y212500D02*
D03*
X141500Y82500D02*
D03*
Y92500D02*
D03*
Y102500D02*
D03*
Y112500D02*
D03*
Y122500D02*
D03*
Y132500D02*
D03*
Y142500D02*
D03*
Y152500D02*
D03*
Y162500D02*
D03*
Y172500D02*
D03*
Y182500D02*
D03*
Y192500D02*
D03*
Y202500D02*
D03*
Y212500D02*
D03*
D17*
X197000Y222500D02*
D03*
X141500D02*
D03*
D18*
X381500Y172134D02*
D03*
Y193866D02*
D03*
X384500Y59134D02*
D03*
Y80866D02*
D03*
D19*
X305000Y265122D02*
D03*
Y241500D02*
D03*
D20*
X323504Y253311D02*
D03*
M02*
