M48
;Layer_Color=9474304
;FILE_FORMAT=2:5
INCH,TZ
;TYPE=PLATED
T1F00S00C0.03937
T2F00S00C0.05906
T3F00S00C0.05950
;TYPE=NON_PLATED
T4F00S00C0.03600
%
T01
X141500Y82500
Y92500
Y102500
Y112500
Y122500
X197000
Y112500
Y102500
Y92500
Y82500
Y132500
Y142500
Y152500
Y162500
Y172500
Y182500
Y192500
Y202500
Y212500
Y222500
X141500
Y212500
Y202500
Y192500
Y182500
Y172500
Y162500
Y152500
Y142500
Y132500
T02
X48000Y68000
Y88000
Y108000
Y128000
Y148000
Y168000
T03
X305000Y241500
Y265122
X323504Y253311
T04
X306500Y70000
X346500
X276000
Y30000
X101500Y68500
Y108500
X276000Y143500
Y183500
X313500Y183000
X353500
M30
